<svg xmlns="http://www.w3.org/2000/svg" viewBox="0 0 1920 1200" preserveAspectRatio="xMidYMid slice">
  <defs>
    <linearGradient id="sky" x1="0" y1="0" x2="0" y2="1">
      <stop offset="0%" stop-color="#5a2a7a"/>
      <stop offset="100%" stop-color="#9b4dca"/>
    </linearGradient>
    <linearGradient id="ground" x1="0" y1="0" x2="0" y2="1">
      <stop offset="0%" stop-color="#3a1a4a"/>
      <stop offset="100%" stop-color="#1a0a2a"/>
    </linearGradient>
  </defs>
  <rect width="1920" height="1200" fill="url(#sky)"/>
  <rect x="200.0" y="660.0" width="80" height="30" fill="#7a3daa" opacity="0.70"/><rect x="500.0" y="720.0" width="100" height="25" fill="#9b4dca" opacity="0.60"/><rect x="900.0" y="660.0" width="90" height="30" fill="#7a3daa" opacity="0.70"/><rect x="1300.0" y="720.0" width="110" height="28" fill="#9b4dca" opacity="0.60"/>
  <rect x="1733.8" y="325.6" width="1.4567028865004248" height="1.4567028865004248" fill="#ffffff" opacity="0.45"/><rect x="369.0" y="575.4" width="2.407093802888279" height="2.407093802888279" fill="#ffffff" opacity="0.26"/><rect x="1473.4" y="289.2" width="2.2774074671918823" height="2.2774074671918823" fill="#9b4dca" opacity="0.27"/><rect x="1456.2" y="179.9" width="2.226080514522333" height="2.226080514522333" fill="#9b4dca" opacity="0.39"/><rect x="286.5" y="462.2" width="1.6094915614688579" height="1.6094915614688579" fill="#9b4dca" opacity="0.23"/><rect x="81.9" y="337.2" width="2.6381539679358896" height="2.6381539679358896" fill="#c08aff" opacity="0.37"/><rect x="1101.1" y="310.1" width="1.8117643998358022" height="1.8117643998358022" fill="#9b4dca" opacity="0.52"/><rect x="1110.8" y="668.2" width="2.482869359160633" height="2.482869359160633" fill="#ffffff" opacity="0.27"/><rect x="1907.9" y="773.2" width="1.2236859885917537" height="1.2236859885917537" fill="#ffffff" opacity="0.28"/><rect x="1438.8" y="187.3" width="2.8227797593758397" height="2.8227797593758397" fill="#c08aff" opacity="0.54"/><rect x="438.0" y="139.8" width="2.843962904980131" height="2.843962904980131" fill="#c08aff" opacity="0.43"/><rect x="265.6" y="627.2" width="2.2909870682869657" height="2.2909870682869657" fill="#ffffff" opacity="0.40"/><rect x="1919.3" y="531.5" width="1.8263734942349512" height="1.8263734942349512" fill="#9b4dca" opacity="0.23"/><rect x="69.2" y="484.5" width="2.409007116013899" height="2.409007116013899" fill="#9b4dca" opacity="0.22"/><rect x="1564.0" y="577.0" width="2.9694772989443496" height="2.9694772989443496" fill="#ffffff" opacity="0.52"/><rect x="1507.2" y="294.1" width="1.8914336890956975" height="1.8914336890956975" fill="#c08aff" opacity="0.53"/><rect x="1875.2" y="134.8" width="1.5572103450583676" height="1.5572103450583676" fill="#c08aff" opacity="0.40"/><rect x="1020.9" y="310.1" width="1.9669691746588904" height="1.9669691746588904" fill="#9b4dca" opacity="0.51"/><rect x="208.7" y="711.0" width="2.088862963139726" height="2.088862963139726" fill="#c08aff" opacity="0.47"/><rect x="418.2" y="536.2" width="2.2474513156695624" height="2.2474513156695624" fill="#ffffff" opacity="0.22"/><rect x="1169.0" y="181.0" width="2.740983354046695" height="2.740983354046695" fill="#ffffff" opacity="0.46"/><rect x="1198.6" y="750.7" width="1.4643068913979334" height="1.4643068913979334" fill="#ffffff" opacity="0.26"/><rect x="1438.0" y="294.5" width="1.358418892963526" height="1.358418892963526" fill="#c08aff" opacity="0.43"/><rect x="826.2" y="232.2" width="2.6405746872198366" height="2.6405746872198366" fill="#c08aff" opacity="0.51"/><rect x="1084.0" y="341.5" width="2.28721436514847" height="2.28721436514847" fill="#ffffff" opacity="0.54"/><rect x="1095.4" y="637.5" width="2.0569140357001907" height="2.0569140357001907" fill="#9b4dca" opacity="0.30"/><rect x="620.6" y="26.8" width="1.2051208623228327" height="1.2051208623228327" fill="#c08aff" opacity="0.36"/><rect x="1309.7" y="257.8" width="1.3458013054623126" height="1.3458013054623126" fill="#ffffff" opacity="0.32"/><rect x="1894.8" y="797.7" width="1.2015898436813375" height="1.2015898436813375" fill="#c08aff" opacity="0.41"/><rect x="1652.4" y="572.8" width="1.9623098465773863" height="1.9623098465773863" fill="#ffffff" opacity="0.18"/><rect x="952.7" y="625.5" width="1.8077983025041988" height="1.8077983025041988" fill="#9b4dca" opacity="0.24"/><rect x="1793.8" y="280.9" width="2.377708445237886" height="2.377708445237886" fill="#ffffff" opacity="0.34"/><rect x="1460.4" y="743.5" width="2.056738532508511" height="2.056738532508511" fill="#ffffff" opacity="0.17"/><rect x="1565.1" y="510.0" width="2.8543566824878344" height="2.8543566824878344" fill="#ffffff" opacity="0.20"/><rect x="813.7" y="240.8" width="2.6551017675367703" height="2.6551017675367703" fill="#9b4dca" opacity="0.40"/><rect x="45.9" y="632.8" width="1.5669754877020519" height="1.5669754877020519" fill="#9b4dca" opacity="0.31"/><rect x="91.4" y="61.1" width="1.0814180568404925" height="1.0814180568404925" fill="#ffffff" opacity="0.50"/><rect x="1656.5" y="394.7" width="2.8285530345329146" height="2.8285530345329146" fill="#c08aff" opacity="0.43"/><rect x="313.5" y="94.6" width="1.0870459659210232" height="1.0870459659210232" fill="#9b4dca" opacity="0.21"/><rect x="317.2" y="523.9" width="2.859479751338391" height="2.859479751338391" fill="#ffffff" opacity="0.19"/><rect x="1730.6" y="528.5" width="1.9300525642202262" height="1.9300525642202262" fill="#c08aff" opacity="0.37"/><rect x="1418.4" y="591.9" width="1.5431428672717349" height="1.5431428672717349" fill="#c08aff" opacity="0.53"/><rect x="482.5" y="6.7" width="2.800179634428921" height="2.800179634428921" fill="#ffffff" opacity="0.51"/><rect x="279.7" y="573.2" width="1.4154085506051297" height="1.4154085506051297" fill="#ffffff" opacity="0.43"/><rect x="1040.3" y="415.2" width="1.2214813012784633" height="1.2214813012784633" fill="#ffffff" opacity="0.53"/>
  <rect x="0" y="840" width="1920" height="360" fill="url(#ground)"/>
</svg>