<svg xmlns="http://www.w3.org/2000/svg" viewBox="0 0 1920 1200" preserveAspectRatio="xMidYMid slice">
  <defs>
    <linearGradient id="sky" x1="0" y1="0" x2="0" y2="1">
      <stop offset="0%" stop-color="#7CC4FF"/>
      <stop offset="100%" stop-color="#c8e8a8"/>
    </linearGradient>
    <linearGradient id="ground" x1="0" y1="0" x2="0" y2="1">
      <stop offset="0%" stop-color="#5a8f3a"/>
      <stop offset="100%" stop-color="#2a4a1a"/>
    </linearGradient>
  </defs>
  <rect width="1920" height="1200" fill="url(#sky)"/>
  <rect x="200.0" y="600.0" width="30" height="250" fill="#5a3a1a" opacity="0.80"/><rect x="230.0" y="360.0" width="200" height="200" fill="#3a5a1f" opacity="0.70"/><rect x="800.0" y="540.0" width="35" height="280" fill="#5a3a1a" opacity="0.80"/><rect x="835.0" y="300.0" width="220" height="220" fill="#3a5a1f" opacity="0.70"/><rect x="1400.0" y="600.0" width="30" height="250" fill="#5a3a1a" opacity="0.80"/><rect x="1430.0" y="360.0" width="200" height="200" fill="#3a5a1f" opacity="0.70"/>
  <rect x="1680.2" y="707.1" width="1.315758258044112" height="1.315758258044112" fill="#ffffff" opacity="0.31"/><rect x="1570.3" y="283.8" width="2.6967540663223697" height="2.6967540663223697" fill="#ffffff" opacity="0.48"/><rect x="1018.5" y="276.9" width="2.2595609301418715" height="2.2595609301418715" fill="#e8d3a8" opacity="0.31"/><rect x="520.7" y="823.6" width="1.5167477096323752" height="1.5167477096323752" fill="#e8d3a8" opacity="0.17"/><rect x="1357.2" y="647.0" width="1.6470768778082838" height="1.6470768778082838" fill="#e8d3a8" opacity="0.31"/><rect x="573.3" y="457.9" width="1.8101049962550202" height="1.8101049962550202" fill="#c8e8a8" opacity="0.23"/><rect x="1062.3" y="133.6" width="1.6601703032579778" height="1.6601703032579778" fill="#c8e8a8" opacity="0.39"/><rect x="1917.5" y="524.1" width="2.425135335404754" height="2.425135335404754" fill="#c8e8a8" opacity="0.32"/><rect x="1664.9" y="614.5" width="2.7109605648629755" height="2.7109605648629755" fill="#ffffff" opacity="0.48"/><rect x="632.3" y="348.8" width="1.065303853123242" height="1.065303853123242" fill="#e8d3a8" opacity="0.24"/><rect x="1861.5" y="27.9" width="2.0688687492051354" height="2.0688687492051354" fill="#c8e8a8" opacity="0.51"/><rect x="1360.7" y="530.9" width="1.1270775826396189" height="1.1270775826396189" fill="#e8d3a8" opacity="0.32"/><rect x="155.8" y="813.8" width="1.184659476769155" height="1.184659476769155" fill="#e8d3a8" opacity="0.22"/><rect x="672.3" y="637.8" width="1.39197365365565" height="1.39197365365565" fill="#ffffff" opacity="0.54"/><rect x="17.9" y="371.6" width="2.855536131992385" height="2.855536131992385" fill="#ffffff" opacity="0.30"/><rect x="344.8" y="711.7" width="1.6899568264008176" height="1.6899568264008176" fill="#e8d3a8" opacity="0.37"/><rect x="949.3" y="722.7" width="2.1631107836095875" height="2.1631107836095875" fill="#ffffff" opacity="0.16"/><rect x="1892.5" y="513.6" width="2.1933379102397197" height="2.1933379102397197" fill="#e8d3a8" opacity="0.45"/><rect x="531.7" y="752.8" width="2.7866695590657997" height="2.7866695590657997" fill="#ffffff" opacity="0.32"/><rect x="162.9" y="734.7" width="1.7903019631997286" height="1.7903019631997286" fill="#ffffff" opacity="0.38"/><rect x="1045.0" y="815.9" width="1.3023153145879955" height="1.3023153145879955" fill="#ffffff" opacity="0.48"/><rect x="1545.0" y="51.1" width="1.545296077025482" height="1.545296077025482" fill="#c8e8a8" opacity="0.16"/><rect x="861.1" y="509.7" width="2.433081953701212" height="2.433081953701212" fill="#c8e8a8" opacity="0.51"/><rect x="1300.3" y="536.7" width="2.7265276482214835" height="2.7265276482214835" fill="#ffffff" opacity="0.52"/><rect x="1162.3" y="215.6" width="2.8389180154881513" height="2.8389180154881513" fill="#ffffff" opacity="0.24"/><rect x="818.7" y="185.1" width="2.1948794850064735" height="2.1948794850064735" fill="#c8e8a8" opacity="0.48"/><rect x="26.2" y="147.2" width="2.5972776150616568" height="2.5972776150616568" fill="#c8e8a8" opacity="0.23"/><rect x="1247.8" y="357.2" width="2.0461328768591374" height="2.0461328768591374" fill="#ffffff" opacity="0.41"/><rect x="1704.8" y="116.8" width="2.9979291552670917" height="2.9979291552670917" fill="#c8e8a8" opacity="0.39"/><rect x="1096.0" y="546.9" width="2.006630827034304" height="2.006630827034304" fill="#ffffff" opacity="0.53"/><rect x="1712.9" y="499.3" width="1.9838912503081112" height="1.9838912503081112" fill="#ffffff" opacity="0.44"/><rect x="510.9" y="390.1" width="2.770620301688385" height="2.770620301688385" fill="#ffffff" opacity="0.18"/><rect x="1781.5" y="222.0" width="2.5750731003747926" height="2.5750731003747926" fill="#ffffff" opacity="0.22"/><rect x="1432.9" y="769.2" width="2.6759475505747368" height="2.6759475505747368" fill="#e8d3a8" opacity="0.46"/><rect x="226.3" y="63.6" width="2.2402121014591807" height="2.2402121014591807" fill="#c8e8a8" opacity="0.25"/><rect x="862.5" y="25.0" width="2.04989789727569" height="2.04989789727569" fill="#ffffff" opacity="0.49"/><rect x="1616.5" y="707.0" width="1.5409544163949394" height="1.5409544163949394" fill="#e8d3a8" opacity="0.44"/><rect x="98.9" y="7.3" width="1.8895665396159733" height="1.8895665396159733" fill="#e8d3a8" opacity="0.20"/><rect x="528.5" y="702.4" width="1.8318130915169089" height="1.8318130915169089" fill="#c8e8a8" opacity="0.31"/><rect x="624.8" y="295.9" width="2.3539954760867126" height="2.3539954760867126" fill="#e8d3a8" opacity="0.24"/><rect x="851.3" y="312.0" width="1.8590436609276955" height="1.8590436609276955" fill="#c8e8a8" opacity="0.39"/><rect x="358.4" y="177.4" width="1.438025267636619" height="1.438025267636619" fill="#c8e8a8" opacity="0.29"/><rect x="672.0" y="732.9" width="1.734585010253221" height="1.734585010253221" fill="#c8e8a8" opacity="0.47"/><rect x="478.8" y="174.7" width="1.4789615195851626" height="1.4789615195851626" fill="#ffffff" opacity="0.25"/><rect x="1273.7" y="422.8" width="2.285907638783711" height="2.285907638783711" fill="#e8d3a8" opacity="0.42"/><rect x="1150.8" y="9.2" width="2.4895377504559013" height="2.4895377504559013" fill="#ffffff" opacity="0.26"/><rect x="929.8" y="677.6" width="1.185116919501755" height="1.185116919501755" fill="#c8e8a8" opacity="0.47"/><rect x="1375.0" y="215.2" width="2.212926728203628" height="2.212926728203628" fill="#c8e8a8" opacity="0.50"/><rect x="355.1" y="1.2" width="2.3099933943020097" height="2.3099933943020097" fill="#ffffff" opacity="0.24"/><rect x="1536.1" y="44.3" width="2.804429090903582" height="2.804429090903582" fill="#c8e8a8" opacity="0.28"/>
  <rect x="0" y="840" width="1920" height="360" fill="url(#ground)"/>
</svg>